<?xml version="1.0" encoding="UTF-8"?>
<svg width="128px" height="156px" viewBox="0 0 128 156" version="1.1" xmlns="http://www.w3.org/2000/svg" xmlns:xlink="http://www.w3.org/1999/xlink">
    <!-- Generator: Sketch 45.2 (43514) - http://www.bohemiancoding.com/sketch -->
    <title>Combined Shape</title>
    <desc>Created with Sketch.</desc>
    <defs></defs>
    <g id="Page-1" stroke="none" stroke-width="1" fill="none" fill-rule="evenodd">
        <g id="Artboard" transform="translate(-69.000000, -50.000000)" fill="#ffffff">
            <path d="M133.535106,65.2581914 C135.640126,64.6846717 137.797185,64.2373622 139.99765,63.9248956 C142.365894,63.5755353 144.788961,63.3945761 147.254293,63.3945761 C147.299841,63.3945761 147.345374,63.3946379 147.390893,63.3947614 C147.438146,63.3946379 147.485409,63.3945761 147.532687,63.3945761 L147.532687,63.3945761 C174.632178,63.5451889 196.554204,85.5597562 196.554204,112.694487 C196.554204,139.829218 174.632178,161.843785 147.532687,161.993628 L147.532687,205.046875 L94.4130747,205.046875 L94.4130747,119.39455 C79.7243904,115.078938 69,101.498414 69,85.4130747 C69,65.8549736 84.8549736,50 104.413075,50 C116.482621,50 127.141914,56.0380131 133.535106,65.2581914 Z M133.535106,65.2581914 C110.989285,71.4008749 94.4130747,92.0217408 94.4130747,116.514188 L94.4130747,116.514188 L94.4130747,119.39455 C97.5843039,120.326274 100.940313,120.826149 104.413075,120.826149 C123.971176,120.826149 139.826149,104.971176 139.826149,85.4130747 C139.826149,77.92452 137.501764,70.9788547 133.535106,65.2581914 Z" id="Combined-Shape"></path>
        </g>
    </g>
</svg>